<?xml version="1.0" encoding="utf-8"?>
<!-- Generator: Adobe Illustrator 19.0.1, SVG Export Plug-In . SVG Version: 6.00 Build 0)  -->
<!DOCTYPE svg PUBLIC "-//W3C//DTD SVG 1.1//EN" "http://www.w3.org/Graphics/SVG/1.1/DTD/svg11.dtd">
<svg version="1.1" id="Layer_1" xmlns="http://www.w3.org/2000/svg" xmlns:xlink="http://www.w3.org/1999/xlink" x="0px" y="0px"
	 width="24px" height="24px" viewBox="0 0 24 24" enable-background="new 0 0 24 24" xml:space="preserve">
<g>
	<path fill="#CCCCCC" d="M21,10h-1.3c-0.2-0.7-0.5-1.4-0.9-2.1L19.7,7c0.8-0.8,0.8-2,0-2.8l0,0c-0.8-0.8-2-0.8-2.8,0L16,5.1
		c-0.6-0.4-1.3-0.7-2.1-0.9V3c0-1.1-0.9-2-2-2s-2,0.9-2,2v1.3c-0.6,0.2-1.3,0.4-2,0.8L7.1,4.2c-0.8-0.8-2-0.8-2.8,0l0,0
		C3.5,5,3.5,6.2,4.3,7l0.9,0.9C4.7,8.6,4.5,9.3,4.3,10H3c-1.1,0-2,0.9-2,2s0.9,2,2,2h1.3c0.2,0.7,0.5,1.4,0.9,2.1L4.3,17
		c-0.8,0.8-0.8,2,0,2.8l0,0c0.8,0.8,2,0.8,2.8,0L8,18.9c0.6,0.4,1.3,0.7,2.1,0.9V21c0,1.1,0.9,2,2,2s2-0.9,2-2v-1.3
		c0.7-0.2,1.4-0.5,2.1-0.9l0.9,0.9c0.8,0.8,2,0.8,2.8,0l0,0c0.8-0.8,0.8-2,0-2.8L19,16c0.4-0.6,0.7-1.3,0.9-2.1H21c1.1,0,2-0.9,2-2
		C23,10.9,22.1,10,21,10z M12,15c-1.7,0-3-1.3-3-3s1.3-3,3-3s3,1.3,3,3S13.7,15,12,15z"/>
</g>
</svg>
