<?xml version="1.0" encoding="utf-8"?>
<!-- Generator: Adobe Illustrator 19.0.1, SVG Export Plug-In . SVG Version: 6.00 Build 0)  -->
<!DOCTYPE svg PUBLIC "-//W3C//DTD SVG 1.1//EN" "http://www.w3.org/Graphics/SVG/1.1/DTD/svg11.dtd">
<svg version="1.1" id="Layer_1" xmlns="http://www.w3.org/2000/svg" xmlns:xlink="http://www.w3.org/1999/xlink" x="0px" y="0px"
	 width="32px" height="32px" viewBox="0 0 32 32" enable-background="new 0 0 32 32" xml:space="preserve">
<g>
	<path fill="#314D5D" d="M4,21c0,0.6,0.4,1,1,1h25c0.6,0,1-0.4,1-1s-0.4-1-1-1H6v-2h19c0.5,0,0.9-0.3,1-0.8l3-12
		c0.1-0.3,0-0.6-0.2-0.9S28.3,4,28,4H6V1c0-0.6-0.4-1-1-1H1C0.4,0,0,0.4,0,1s0.4,1,1,1h3V21z"/>
	<circle fill="#314D5D" cx="7" cy="28" r="3"/>
	<circle fill="#314D5D" cx="28" cy="28" r="3"/>
</g>
</svg>
